<svg id="Camada_1" data-name="Camada 1" xmlns="http://www.w3.org/2000/svg" viewBox="0 0 349.8 68.3"><defs><style>.cls-1{fill:#3a9e91;}.cls-2{opacity:0.3;}.cls-10,.cls-3{opacity:0.5;}.cls-10,.cls-11,.cls-12,.cls-4,.cls-9{fill:#27debf;}.cls-5{opacity:0.7;}.cls-6{opacity:0.2;}.cls-12,.cls-7{opacity:0.15;}.cls-8{opacity:0.85;}.cls-9{opacity:0.1;}.cls-10,.cls-11,.cls-12,.cls-9{isolation:isolate;}.cls-11{opacity:0.35;}.cls-13{fill:#fff;}</style></defs><title>decole_verdev2</title><path class="cls-1" d="M42,67.3H34v-8h.4c-3.4,6.1-8.6,9-15.6,9A17.13,17.13,0,0,1,5.1,62.2C1.7,58.1,0,52.5,0,45.6q0-11.25,5.7-18a18.78,18.78,0,0,1,15.1-6.8c6.2,0,10.8,2.5,13.6,7.5H35V.3h7ZM35,46.7V40A12.81,12.81,0,0,0,22.2,26.8a12.61,12.61,0,0,0-10.5,4.9C9.1,35,7.9,39.5,7.9,45.2c0,5.2,1.2,9.4,3.7,12.4a11.75,11.75,0,0,0,9.8,4.5,12.24,12.24,0,0,0,9.8-4.4A16.22,16.22,0,0,0,35,46.7Z"/><path class="cls-1" d="M95,46.3H64.3q.15,7.5,3.9,11.7c2.5,2.8,5.9,4.1,10.3,4.1a21.06,21.06,0,0,0,13.5-5v6.8c-3.8,2.9-8.9,4.3-15.2,4.3-6.1,0-11-2.1-14.5-6.2S57,52.1,57,44.6c0-7.1,1.9-12.8,5.8-17.3a18.25,18.25,0,0,1,14.3-6.7c5.7,0,10.1,1.9,13.2,5.8s4.7,9.2,4.7,16Zm-7.6-6c0-4.2-1-7.5-3-9.8A10.24,10.24,0,0,0,76.1,27a11.42,11.42,0,0,0-8.7,3.7A16.42,16.42,0,0,0,63,40.3Z"/><path class="cls-1" d="M139,65.1a26.13,26.13,0,0,1-12.8,3.2c-6.5,0-11.7-2.1-15.7-6.3s-6-9.7-6-16.4c0-7.5,2.1-13.5,6.4-18s10-6.8,17.2-6.8A19.81,19.81,0,0,1,138,23v7.5A15.21,15.21,0,0,0,127.8,27a14.6,14.6,0,0,0-11.4,5c-3,3.3-4.5,7.7-4.5,13.1s1.4,9.5,4.2,12.6,6.5,4.6,11.2,4.6a20.21,20.21,0,0,0,11.6-3.9v6.7Z"/><path class="cls-1" d="M170.4,68.3c-6.7,0-12.1-2.1-16.1-6.4s-6-9.9-6-16.9c0-7.6,2.1-13.6,6.3-17.9s9.8-6.4,16.9-6.4c6.8,0,12,2.1,15.8,6.3s5.7,9.9,5.7,17.3c0,7.2-2,13-6.1,17.4S177.3,68.3,170.4,68.3Zm.5-41.4q-7.05,0-11.1,4.8c-2.7,3.2-4.1,7.6-4.1,13.1s1.4,9.6,4.1,12.7a14.31,14.31,0,0,0,11,4.7c4.7,0,8.3-1.5,10.8-4.6s3.8-7.4,3.8-13-1.2-10-3.7-13.1-6.1-4.6-10.8-4.6Z"/><path class="cls-1" d="M214,67.3h-7V.3h7Z"/><path class="cls-1" d="M284.85,45.21,264,57.25l-.65.37A21.08,21.08,0,0,1,250.5,62.1c-4.4,0-7.8-1.3-10.3-4.1s-3.8-6.7-3.9-11.7H267V42.4c0-6.8-1.6-12.2-4.7-16s-7.5-5.8-13.2-5.8a18.25,18.25,0,0,0-14.3,6.7c-3.9,4.5-5.8,10.2-5.8,17.3,0,7.5,1.8,13.3,5.3,17.4s8.4,6.2,14.5,6.2c5.46,0,10-1,13.61-3.21h0l.11-.06,25.29-14.59ZM234.8,40.3a15.84,15.84,0,0,1,4.4-9.6,11.42,11.42,0,0,1,8.7-3.7,10.24,10.24,0,0,1,8.3,3.5c2,2.3,3,5.6,3,9.8Z"/><g id="_Group_48" data-name=" Group 48"><path id="_Path_" data-name=" Path " class="cls-1" d="M289.29,40.88l-3.5-13.8a5.39,5.39,0,0,1,1.3-.7l.4-.2.4-.1.4-.1h.4a3.57,3.57,0,0,1,2.5.5l1.6,1,.2.1a5.35,5.35,0,0,1,1.3,1.3,18.57,18.57,0,0,0,2.7,2.9,5,5,0,0,0,1.3.4c2.1.2,5.5-1.4,7-2.4l1.8,1.1-16,11.2-.5-2.1h-.1Z"/><g id="_Group_49" data-name=" Group 49"><path class="cls-1" d="M286,27.08l3.4,13.7,1.2-.9h.1l9.6-6.7,5.1-3.6c-1.5,1-4.8,2.6-6.9,2.4a6.47,6.47,0,0,1-1.3-.4,13.28,13.28,0,0,1-4.5-4c-.2-.2-.3-.4-.5-.6a5,5,0,0,0-.8-.7,3.12,3.12,0,0,0-2.5-.5h-.4l-.4.1-.4.1-.4.2A7.7,7.7,0,0,1,286,27.08Z"/></g><path id="_Path_2" data-name=" Path 2" class="cls-1" d="M292.19,38.68,289,26a4.42,4.42,0,0,0-1.5.5l3.3,13.2Z"/><g id="_Group_50" data-name=" Group 50" class="cls-2"><path class="cls-1" d="M292.19,38.68,289,26a4.42,4.42,0,0,0-1.5.5l3.3,13.2Z"/></g></g><g id="_Group_" data-name=" Group " class="cls-3"><g id="_Group_2" data-name=" Group 2"><g id="_Group_3" data-name=" Group 3"><g id="_Group_4" data-name=" Group 4"><g id="_Group_5" data-name=" Group 5"><path class="cls-4" d="M282,61.88l-1.2-1.9-1.2-1.9c-3.1,1.2-4.2,4.3-3.8,5S279.59,64.08,282,61.88Z"/></g><g id="_Group_6" data-name=" Group 6" class="cls-5"><path class="cls-4" d="M282,61.88l-1.2-1.9-1.2-1.9c-3.1,1.2-4.2,4.3-3.8,5S279.59,64.08,282,61.88Z"/></g><g id="_Group_7" data-name=" Group 7"><path class="cls-4" d="M280.89,60l.4.7A2.74,2.74,0,0,1,280,62c-.8.4-2.1.4-2.4,0s.4-1.5,1.1-2.1a2.72,2.72,0,0,1,1.7-.6l.5.7"/></g></g><g id="_Group_8" data-name=" Group 8"><g id="_Group_9" data-name=" Group 9"><g id="_Group_10" data-name=" Group 10"><g id="_Group_11" data-name=" Group 11"><path class="cls-4" d="M287.09,58.68l-3.6-3.3-1.3.4a1.76,1.76,0,0,0-.8,1.5,2.2,2.2,0,0,0,.1.8,4.25,4.25,0,0,0,1.4,2.3,2.09,2.09,0,0,0,.6.4,1.53,1.53,0,0,0,1.6,0Z"/></g><g id="_Group_12" data-name=" Group 12" class="cls-6"><path class="cls-4" d="M287.09,58.68l-3.6-3.3-1.3.4a1.76,1.76,0,0,0-.8,1.5,2.2,2.2,0,0,0,.1.8,4.25,4.25,0,0,0,1.4,2.3,2.09,2.09,0,0,0,.6.4,1.53,1.53,0,0,0,1.6,0Z"/></g><g id="_Group_13" data-name=" Group 13"><g id="_Group_14" data-name=" Group 14"><path class="cls-4" d="M284.89,61.08l-.4.4a1.72,1.72,0,0,1-1.7,0,3,3,0,0,1-.7-.5,4.36,4.36,0,0,1-1.5-2.5,2.49,2.49,0,0,1-.1-.8,1.56,1.56,0,0,1,.8-1.5l-1.5.5h0a1.73,1.73,0,0,0-.7,1.6,3.55,3.55,0,0,0,.2,1,6.24,6.24,0,0,0,1.7,2.8,5.55,5.55,0,0,0,.8.6,1.91,1.91,0,0,0,1.8.2Z"/></g><g id="_Group_15" data-name=" Group 15" class="cls-6"><path class="cls-4" d="M284.89,61.08l-.4.4a1.72,1.72,0,0,1-1.7,0,3,3,0,0,1-.7-.5,4.36,4.36,0,0,1-1.5-2.5,2.49,2.49,0,0,1-.1-.8,1.56,1.56,0,0,1,.8-1.5l-1.5.5h0a1.73,1.73,0,0,0-.7,1.6,3.55,3.55,0,0,0,.2,1,6.24,6.24,0,0,0,1.7,2.8,5.55,5.55,0,0,0,.8.6,1.91,1.91,0,0,0,1.8.2Z"/></g></g><g id="_Group_16" data-name=" Group 16"><path class="cls-4" d="M284.89,61.08h0l.3-.3a1.53,1.53,0,0,1-1.6,0c-.2-.1-.4-.3-.6-.4a4.25,4.25,0,0,1-1.4-2.3,2.2,2.2,0,0,1-.1-.8,1.41,1.41,0,0,1,.8-1.5l-1,.3a1.76,1.76,0,0,0-.8,1.5,2,2,0,0,0,.1.8,5,5,0,0,0,1.5,2.5c.2.2.5.3.7.5a1.72,1.72,0,0,0,1.7,0Z"/></g></g></g></g></g><g id="_Group_17" data-name=" Group 17" class="cls-7"><path class="cls-4" d="M286.09,59.78l1-1.1-3.6-3.3-1.3.4h0l-.4.1-.6.2h0l-1.1.3A10.43,10.43,0,0,0,286.09,59.78Z"/></g></g><g id="_Group_18" data-name=" Group 18"><g id="_Group_19" data-name=" Group 19"><g id="_Group_20" data-name=" Group 20"><g id="_Group_21" data-name=" Group 21"><path class="cls-4" d="M273.79,48.28l-1.2-1.9-1.2-1.9c-3.1,1.2-4.2,4.3-3.8,5S271.29,50.58,273.79,48.28Z"/></g><g id="_Group_22" data-name=" Group 22" class="cls-5"><path class="cls-4" d="M273.79,48.28l-1.2-1.9-1.2-1.9c-3.1,1.2-4.2,4.3-3.8,5S271.29,50.58,273.79,48.28Z"/></g><g id="_Group_23" data-name=" Group 23"><path class="cls-4" d="M272.59,46.38l.4.7a2.74,2.74,0,0,1-1.3,1.3c-.8.4-2.1.4-2.4,0s.4-1.5,1.1-2.1a2.72,2.72,0,0,1,1.7-.6l.5.7"/></g></g><g id="_Group_24" data-name=" Group 24"><g id="_Group_25" data-name=" Group 25"><g id="_Group_26" data-name=" Group 26"><g id="_Group_27" data-name=" Group 27"><path class="cls-4" d="M278.79,45.18l-2.2-3.6-2.7.8a1.72,1.72,0,0,0-.8,1.4,2.2,2.2,0,0,0,.1.8,4.25,4.25,0,0,0,1.4,2.3,2.09,2.09,0,0,0,.6.4,1.53,1.53,0,0,0,1.6,0Z"/></g><g id="_Group_28" data-name=" Group 28" class="cls-6"><path class="cls-4" d="M278.79,45.18l-2.2-3.6-2.7.8a1.72,1.72,0,0,0-.8,1.4,2.2,2.2,0,0,0,.1.8,4.25,4.25,0,0,0,1.4,2.3,2.09,2.09,0,0,0,.6.4,1.53,1.53,0,0,0,1.6,0Z"/></g><g id="_Group_29" data-name=" Group 29"><path class="cls-4" d="M276.69,47.38h0l-.5.5a1.72,1.72,0,0,1-1.7,0,3,3,0,0,1-.7-.5,5,5,0,0,1-1.5-2.5,2.49,2.49,0,0,1-.1-.8,1.41,1.41,0,0,1,.8-1.5l-1.5.4h0a1.73,1.73,0,0,0-.7,1.6,3.55,3.55,0,0,0,.2,1,6.24,6.24,0,0,0,1.7,2.8,5.55,5.55,0,0,0,.8.6,1.67,1.67,0,0,0,1.8.1Z"/></g><g id="_Group_30" data-name=" Group 30" class="cls-6"><path class="cls-4" d="M276.69,47.38h0l-.5.5a1.72,1.72,0,0,1-1.7,0,3,3,0,0,1-.7-.5,5,5,0,0,1-1.5-2.5,2.49,2.49,0,0,1-.1-.8,1.41,1.41,0,0,1,.8-1.5l-1.5.4h0a1.73,1.73,0,0,0-.7,1.6,3.55,3.55,0,0,0,.2,1,6.24,6.24,0,0,0,1.7,2.8,5.55,5.55,0,0,0,.8.6,1.67,1.67,0,0,0,1.8.1Z"/></g><g id="_Group_31" data-name=" Group 31"><path class="cls-4" d="M276.59,47.48h0l.3-.3a1.53,1.53,0,0,1-1.6,0c-.2-.1-.4-.3-.6-.4a4.25,4.25,0,0,1-1.4-2.3,2.2,2.2,0,0,1-.1-.8,1.42,1.42,0,0,1,.8-1.4l-.9.3a1.76,1.76,0,0,0-.8,1.5,2,2,0,0,0,.1.8,4.58,4.58,0,0,0,1.5,2.5c.2.2.5.3.7.5a1.72,1.72,0,0,0,1.7,0Z"/></g></g></g></g></g><g id="_Group_32" data-name=" Group 32" class="cls-7"><path class="cls-4" d="M276.59,41.48l-1.4.4a10.59,10.59,0,0,0,.3,6.8l1.3-1.3.2-.2h0l1.9-2Z"/></g></g><g id="_Group_33" data-name=" Group 33"><g id="_Group_34" data-name=" Group 34"><g id="_Group_35" data-name=" Group 35"><path class="cls-4" d="M277,58.18l-1.5-4.3-3.1-3.3a12.06,12.06,0,0,0-4.3,2.7c-2.4,2.1-3.7,5.9-3.1,7s4.6,1.6,7.6.4A10.27,10.27,0,0,0,277,58.18Z"/></g><g id="_Group_36" data-name=" Group 36" class="cls-8"><path class="cls-4" d="M277,58.18l-1.5-4.3-3.1-3.3a12.06,12.06,0,0,0-4.3,2.7c-2.4,2.1-3.7,5.9-3.1,7s4.6,1.6,7.6.4A10.27,10.27,0,0,0,277,58.18Z"/></g><g id="_Group_37" data-name=" Group 37"><path class="cls-4" d="M275.79,57.18l-1.6-2.6-1.6-2.6c-4.2,1.6-5.6,5.7-5.1,6.6S272.49,60.18,275.79,57.18Z"/></g><g id="_Group_38" data-name=" Group 38"><path class="cls-4" d="M274.29,54.58l.5.9a2.86,2.86,0,0,1-1.7,1.7c-1.1.5-2.8.6-3.1.1s.5-2.1,1.5-2.8a4,4,0,0,1,2.3-.8l.5.9"/></g></g><g id="_Group_39" data-name=" Group 39"><g id="_Group_40" data-name=" Group 40"><g id="_Group_41" data-name=" Group 41"><g id="_Group_42" data-name=" Group 42"><path class="cls-4" d="M280.29,55.58l1.2-1.3-1-1.7-1.4-2.3-1.1-1.7-1.7.5a1.89,1.89,0,0,0-1,1.9,3.4,3.4,0,0,0,.1,1,6.25,6.25,0,0,0,1.9,3.1,7,7,0,0,0,.9.6A2.25,2.25,0,0,0,280.29,55.58Z"/></g><g id="_Group_43" data-name=" Group 43" class="cls-3"><path class="cls-4" d="M280.29,55.58l1.2-1.3-1-1.7-1.4-2.3-1.1-1.7-1.7.5a1.89,1.89,0,0,0-1,1.9,3.4,3.4,0,0,0,.1,1,6.25,6.25,0,0,0,1.9,3.1,7,7,0,0,0,.9.6A2.25,2.25,0,0,0,280.29,55.58Z"/></g><g id="_Group_44" data-name=" Group 44"><path class="cls-4" d="M280,55.88l-.1.1-.5.6a2.35,2.35,0,0,1-2.3,0l-.9-.6a6.31,6.31,0,0,1-2-3.3,4.48,4.48,0,0,1-.1-1.1,2.28,2.28,0,0,1,1-2.1l-2,.6h0a2.37,2.37,0,0,0-.9,2.2,5.85,5.85,0,0,0,.2,1.3,8,8,0,0,0,2.3,3.7,8.74,8.74,0,0,0,1,.8,2.31,2.31,0,0,0,2.4.2Z"/></g><g id="_Group_45" data-name=" Group 45" class="cls-3"><path class="cls-4" d="M280,55.88l-.1.1-.5.6a2.35,2.35,0,0,1-2.3,0l-.9-.6a6.31,6.31,0,0,1-2-3.3,4.48,4.48,0,0,1-.1-1.1,2.28,2.28,0,0,1,1-2.1l-2,.6h0a2.37,2.37,0,0,0-.9,2.2,5.85,5.85,0,0,0,.2,1.3,8,8,0,0,0,2.3,3.7,8.74,8.74,0,0,0,1,.8,2.31,2.31,0,0,0,2.4.2Z"/></g><g id="_Group_46" data-name=" Group 46"><path class="cls-4" d="M279.89,56l.1-.1.2-.3a2.17,2.17,0,0,1-2.2,0,4.7,4.7,0,0,1-.9-.6,6.25,6.25,0,0,1-1.9-3.1,3.4,3.4,0,0,1-.1-1,1.89,1.89,0,0,1,1-1.9l-1.3.4a2.18,2.18,0,0,0-1,2.1,3.75,3.75,0,0,0,.1,1.1,6.31,6.31,0,0,0,2,3.3l.9.6a2.35,2.35,0,0,0,2.3,0Z"/></g></g></g><g id="_Group_47" data-name=" Group 47" class="cls-7"><path class="cls-4" d="M277.29,52.88a19.1,19.1,0,0,0,2.4,3.2l.1-.1.1-.1.2-.3,1.2-1.3-1-1.7-1.4-2.3-1.1-1.7-1.7.5-.7.2C276.09,50.48,276.59,51.68,277.29,52.88Z"/></g></g></g></g><g id="_Group_51" data-name=" Group 51" class="cls-3"><g id="_Group_52" data-name=" Group 52"><path id="_Path_3" data-name=" Path 3" class="cls-4" d="M298,47.28c-3,3.8-6,7.5-8.8,11.4a2.3,2.3,0,0,1-2.6.5,17,17,0,0,1-7.9-7.1,17.83,17.83,0,0,1-2.6-10.3,2.16,2.16,0,0,1,1.5-2.1c4.7-.8,9.3-1.7,14-2.6C293.69,40.48,295.79,43.88,298,47.28Z"/><path id="_Path_4" data-name=" Path 4" class="cls-4" d="M281.69,50.18a17.57,17.57,0,0,0,8.3,7.4l-.8,1.1a2.12,2.12,0,0,1-2.6.4,17,17,0,0,1-7.9-7.1,17.83,17.83,0,0,1-2.6-10.3,2.16,2.16,0,0,1,1.5-2.1l1.3-.2A18.62,18.62,0,0,0,281.69,50.18Z"/><path id="_Path_5" data-name=" Path 5" class="cls-4" d="M290.49,44.78a22.27,22.27,0,0,1-3-6.9c1.6-.3,2.4-.5,4.1-.8l2.9,4.6.3.5.3.5,2.9,4.6c-1.1,1.3-1.6,2-2.6,3.3A22.57,22.57,0,0,1,290.49,44.78Z"/><g id="_Group_53" data-name=" Group 53" class="cls-3"><path id="_Path_6" data-name=" Path 6" class="cls-4" d="M296.79,45.48l-3.6,3c.5.6,1,1,1.4,1.5l3.1-3A11.91,11.91,0,0,0,296.79,45.48Z"/></g><g id="_Group_54" data-name=" Group 54" class="cls-3"><path id="_Path_7" data-name=" Path 7" class="cls-4" d="M276.09,41.68a17.83,17.83,0,0,0,2.6,10.3l.4.6.4.6.2.3c.1.2.2.3.3.5l.2.3c.1.1.1.2.2.3l.4.4.1.1c.1.2.3.3.5.5l.6.6.3.3.4.4a9.68,9.68,0,0,0,.9.7l.2.2.2.2.4.2.4.2c.1.1.2.1.4.2l.4.2,2.3-2.1a17.68,17.68,0,0,1-2.2-1.6,10.53,10.53,0,0,0-.9.8C281.59,56.38,276.69,49.38,276.09,41.68Z"/></g><path id="_Path_8" data-name=" Path 8" class="cls-9" d="M293.19,48.48l-7.6,6.4a17.68,17.68,0,0,0,2.2,1.6l6.9-6.5Z"/></g></g><g id="_Group_55" data-name=" Group 55"><path id="_Path_9" data-name=" Path 9" class="cls-1" d="M293.69,47.18l10.3,9a8.34,8.34,0,0,0,1.2-.8l.3-.3.3-.3.3-.3c0-.1.1-.1.1-.2l.1-.1h0a3.56,3.56,0,0,0,.7-2.4l-.1-1.8v-.2a4.8,4.8,0,0,0-.5-1.7,14,14,0,0,1-1.3-3.6,3.08,3.08,0,0,1,.3-1.3c.7-2,3.6-4.1,5.1-4.9l-.2-2.1-16.7,8.9,1.5,1.3h0Z"/><g id="_Group_56" data-name=" Group 56"><path class="cls-1" d="M304,56.28l-10.3-9,1.3-.7h0l10-5.3,5.3-2.8c-1.5.8-4.4,3-5.1,4.9a2.77,2.77,0,0,0-.3,1.3,11.57,11.57,0,0,0,1.5,5.7,4.88,4.88,0,0,1,.3.7,3.55,3.55,0,0,1,.2,1,3,3,0,0,1-.7,2.4h0l-.1.1c0,.1-.1.1-.1.2l-.3.3-.3.3-.3.3A3,3,0,0,0,304,56.28Z"/></g><path id="_Path_10" data-name=" Path 10" class="cls-1" d="M296.49,45.68l9.8,8.6a5.73,5.73,0,0,1-1.1,1.1L295,46.48Z"/><g id="_Group_57" data-name=" Group 57" class="cls-2"><path class="cls-1" d="M296.49,45.68l9.8,8.6a5.73,5.73,0,0,1-1.1,1.1L295,46.48Z"/></g></g><g id="_Group_58" data-name=" Group 58"><path id="_Path_11" data-name=" Path 11" class="cls-4" d="M330.69,35.48a7,7,0,0,0,1.9-1.5c5.1-5.3,7.5-12.5,9.2-17a18.61,18.61,0,0,0,1-3.1,1.69,1.69,0,0,0-.3-1,2.34,2.34,0,0,0-.7-.7,18.81,18.81,0,0,0-3.3-.5c-4.2-.5-12.3-1.7-19.3.5a9.06,9.06,0,0,0-2.2,1.1l-33,22.1h0c-1.7,1-2.3,3.9-1,8.1a20.84,20.84,0,0,0,5.2,8.5c3.1,3.1,5.9,3.9,7.6,2.8h0Z"/><path id="_Path_12" data-name=" Path 12" class="cls-10" d="M330.69,35.48a7,7,0,0,0,1.9-1.5c5.1-5.3,7.5-12.5,9.2-17a18.61,18.61,0,0,0,1-3.1,1.69,1.69,0,0,0-.3-1,2.34,2.34,0,0,0-.7-.7,18.81,18.81,0,0,0-3.3-.5c-4.2-.5-12.3-1.7-19.3.5a9.06,9.06,0,0,0-2.2,1.1l-33,22.1h0c-1.7,1-2.3,3.9-1,8.1a20.84,20.84,0,0,0,5.2,8.5c3.1,3.1,5.9,3.9,7.6,2.8h0Z"/><path class="cls-11" d="M332.59,34c5.1-5.3,7.5-12.5,9.2-17l.3-.7h0c-3.1,4.7-8.1,12.1-17.7,18.3-5.7,3.6-21.4,12.6-33.3,19.3h0a10.93,10.93,0,0,0,1.5.8h0a8.14,8.14,0,0,0,.9.2H295l.3,1h.1l.2-1h.1l.3-.2h0l34.6-19.3A6.61,6.61,0,0,0,332.59,34Z"/><path id="_Path_13" data-name=" Path 13" class="cls-4" d="M317.29,16.68c.6,6.1,5.2,13.6,10.3,16.9a12,12,0,0,0,3.7,1.5,7.55,7.55,0,0,0,1.4-1.1c.2-.2.4-.5.6-.7a13,13,0,0,1-3-1.3c-5.1-3.3-9.8-10.9-10.3-16.9a10.07,10.07,0,0,1,.1-3l-.8.2a14.17,14.17,0,0,0-1.8.8A8.68,8.68,0,0,0,317.29,16.68Z"/><path class="cls-9" d="M331.29,35.08a6.89,6.89,0,0,0,1.3-1.1l.7-.8a10.76,10.76,0,0,1-2.9-1.3,10.47,10.47,0,0,1-1.1-.8c-.8.6-1.6,1.3-2.5,1.9l.9.6A7.7,7.7,0,0,0,331.29,35.08Z"/><path id="_Path_14" data-name=" Path 14" class="cls-12" d="M342.79,13.68a1.14,1.14,0,0,0-.3-.8,2.34,2.34,0,0,0-.7-.7,18.81,18.81,0,0,0-3.3-.5c-4.2-.5-12.3-1.7-19.3.5a9.06,9.06,0,0,0-2.2,1.1l-33,22.1c-1.7,1-2.3,3.9-1,8.1,0,.1,0,.1.1.2,13.7-9.4,34.6-26.6,45.7-28.9C335,13.48,342.39,12.28,342.79,13.68Z"/><path id="_Path_15" data-name=" Path 15" class="cls-9" d="M342,16.38c-1,1.6-2.3,3.4-3.9,5.5.5.3,1,.6,1.4.8.7-1.6,1.2-3.2,1.8-4.5.1-.4.3-.8.4-1.1a1.69,1.69,0,0,1,.2-.5Z"/></g><g id="_Group_59" data-name=" Group 59"><path id="_Path_16" data-name=" Path 16" class="cls-1" d="M285,41.68l-14.2-6.6-.2-2c2.7-1.8,5.7-2.2,9.7-1.4,1.7.3,3.3.6,4.7.8a33.6,33.6,0,0,0,6.3.6,11.2,11.2,0,0,0,6.2-1.5l.1-.1.1-.1.2,1Z"/><g id="_Group_62" data-name=" Group 62"><path class="cls-1" d="M298,32.38a14.83,14.83,0,0,1-6.4,2.2c-2.9.4-6.6,0-11-.9-4-.8-7-.3-9.7,1.4l14.3,6.6Z"/></g><path id="_Path_17" data-name=" Path 17" class="cls-1" d="M287.39,39.88l-13.5-6.2a13.36,13.36,0,0,0-1.8.7l14.1,6.5Z"/></g><g id="_Group_63" data-name=" Group 63"><path id="_Path_18" data-name=" Path 18" class="cls-1" d="M290.59,50.78l-.6,15.7,1.7,1.1c2.8-1.6,4.6-4.1,5.7-8,.5-1.7.9-3.2,1.4-4.6a42.38,42.38,0,0,1,2.3-5.9c1.4-2.7,2.6-3.9,4.2-4.8l.2-.1.1-.1-.9-.6Z"/><g id="_Group_66" data-name=" Group 66"><path class="cls-1" d="M304.79,43.48a15,15,0,0,0-4.9,4.8c-1.7,2.4-3,5.9-4.2,10.3-1.1,3.9-2.9,6.4-5.7,8l.6-15.7Z"/></g><path id="_Path_19" data-name=" Path 19" class="cls-1" d="M293.19,49.38l-.6,15a8.64,8.64,0,0,1-1.4,1.3l.6-15.6Z"/></g><ellipse class="cls-10" cx="298.1" cy="39.57" rx="4.4" ry="5.2" transform="translate(22.64 160.2) rotate(-31.21)"/><ellipse class="cls-4" cx="298.1" cy="39.57" rx="3.2" ry="3.8" transform="matrix(0.86, -0.52, 0.52, 0.86, 22.64, 160.2)"/><path class="cls-13" d="M317.39,17.78h0a1,1,0,0,0-1.1.9,1.19,1.19,0,0,0,1,1.2,10.55,10.55,0,0,1,2.4.6,8.73,8.73,0,0,1,4.6,11.6,1.18,1.18,0,0,0,.1,1,1.76,1.76,0,0,0,.4.5h0a1,1,0,0,0,1.3-.5,10.54,10.54,0,0,0-.9-10.3A10.29,10.29,0,0,0,317.39,17.78Z"/><path class="cls-13" d="M328.39,20.68a14.28,14.28,0,0,0-10.3-6.5h0a1.09,1.09,0,0,0-1.1.9,1.19,1.19,0,0,0,1,1.2,12.25,12.25,0,0,1,9.7,16.9,1.18,1.18,0,0,0,.1,1,.78.78,0,0,0,.4.4h0a1,1,0,0,0,1.3-.5A13.94,13.94,0,0,0,328.39,20.68Z"/><path class="cls-13" d="M316.59,21.88a6.6,6.6,0,1,0,6.6,6.6A6.59,6.59,0,0,0,316.59,21.88Zm0,11a4.6,4.6,0,1,1,4.6-4.6A4.59,4.59,0,0,1,316.59,32.88Z"/></svg>