<?xml version="1.0" encoding="utf-8"?>
<!-- Generator: Adobe Illustrator 23.0.0, SVG Export Plug-In . SVG Version: 6.00 Build 0)  -->
<svg version="1.1" id="Camada_1" xmlns="http://www.w3.org/2000/svg" xmlns:xlink="http://www.w3.org/1999/xlink" x="0px" y="0px"
	 viewBox="0 0 327 327.2" style="enable-background:new 0 0 327 327.2;" xml:space="preserve">
<style type="text/css">
	.st0{fill:#3A9E91;}
	.st1{opacity:0.5;}
	.st2{fill:#27DEBF;}
	.st3{opacity:0.7;}
	.st4{opacity:0.2;}
	.st5{opacity:0.15;}
	.st6{opacity:0.85;}
	.st7{fill:#FFFFFF;}
	.st8{opacity:0.3;}
	.st9{opacity:0.1;fill:#27DEBF;enable-background:new    ;}
	.st10{opacity:0.5;fill:#27DEBF;enable-background:new    ;}
	.st11{opacity:0.35;fill:#27DEBF;enable-background:new    ;}
	.st12{opacity:0.15;fill:#27DEBF;enable-background:new    ;}
	.st13{opacity:0.88;}
	.st14{opacity:0.6;}
	.st15{opacity:0.9;}
</style>
<title>Logo Circle</title>
<g>
	<circle class="st0" cx="163.5" cy="163.5" r="163.5"/>
	<g id="_Group_" class="st1">
		<g id="_Group_2">
			<g id="_Group_3">
				<g id="_Group_4">
					<g id="_Group_5">
						<path class="st2" d="M197.9,278.7h-7.9H182c-2.2,11.6,5.1,20.5,8,20.5S200.2,290.3,197.9,278.7z"/>
					</g>
					<g id="_Group_6" class="st3">
						<path class="st2" d="M197.9,278.7h-7.9H182c-2.2,11.6,5.1,20.5,8,20.5S200.2,290.3,197.9,278.7z"/>
					</g>
					<g id="_Group_7">
						<path class="st2" d="M189.9,278.7h2.7c1.2,1.8,1.8,4,1.5,6.2c-0.3,3.1-2.5,7.2-4.2,7.2s-3.9-4-4.2-7.2
							c-0.3-2.2,0.2-4.4,1.4-6.2L189.9,278.7"/>
					</g>
				</g>
				<g id="_Group_8">
					<g id="_Group_9">
						<g id="_Group_10">
							<g id="_Group_11">
								<path class="st2" d="M197.7,257.8l-16.4,5l-1.3,4.6c-0.2,1.8,0.8,3.6,3,4.9c0.8,0.5,1.6,0.9,2.5,1.1c3.1,1,6.4,0.9,9.5,0
									c0.9-0.3,1.7-0.7,2.4-1.1c2.1-1.4,3.1-3.2,2.9-4.9L197.7,257.8z"/>
							</g>
							<g id="_Group_12" class="st4">
								<path class="st2" d="M197.7,257.8l-16.4,5l-1.3,4.6c-0.2,1.8,0.8,3.6,3,4.9c0.8,0.5,1.6,0.9,2.5,1.1c3.1,1,6.4,0.9,9.5,0
									c0.9-0.3,1.7-0.7,2.4-1.1c2.1-1.4,3.1-3.2,2.9-4.9L197.7,257.8z"/>
							</g>
							<g id="_Group_13">
								<g id="_Group_14">
									<path class="st2" d="M200.8,268.8l0.6,2c0.1,1.9-1,3.7-3.2,5.1c-0.8,0.5-1.7,0.9-2.7,1.3c-3.3,1.1-6.9,1.1-10.3,0
										c-1-0.3-1.9-0.7-2.7-1.3c-2.3-1.4-3.3-3.3-3.3-5.1l-1.5,5.4l0,0c0,1.8,1.3,3.6,3.7,5c1,0.6,2.1,1,3.2,1.3
										c3.7,1,7.7,1,11.4-0.1c1.1-0.3,2.1-0.8,3.1-1.3c2.4-1.4,3.7-3.2,3.7-5.1L200.8,268.8z"/>
								</g>
								<g id="_Group_15" class="st4">
									<path class="st2" d="M200.8,268.8l0.6,2c0.1,1.9-1,3.7-3.2,5.1c-0.8,0.5-1.7,0.9-2.7,1.3c-3.3,1.1-6.9,1.1-10.3,0
										c-1-0.3-1.9-0.7-2.7-1.3c-2.3-1.4-3.3-3.3-3.3-5.1l-1.5,5.4l0,0c0,1.8,1.3,3.6,3.7,5c1,0.6,2.1,1,3.2,1.3
										c3.7,1,7.7,1,11.4-0.1c1.1-0.3,2.1-0.8,3.1-1.3c2.4-1.4,3.7-3.2,3.7-5.1L200.8,268.8z"/>
								</g>
							</g>
							<g id="_Group_16">
								<path class="st2" d="M200.8,268.7l-0.1-0.5l-0.3-0.9c0.2,1.8-0.8,3.6-2.9,4.9c-0.8,0.5-1.6,0.9-2.4,1.1c-3.1,1-6.4,1-9.5,0
									c-0.9-0.3-1.7-0.7-2.5-1.1c-2.1-1.3-3.1-3.1-3-4.9l-0.9,3.4c-0.1,1.9,1,3.7,3.3,5.1c0.9,0.5,1.8,1,2.7,1.3
									c3.3,1,6.9,1,10.3,0c0.9-0.3,1.8-0.7,2.7-1.3c2.2-1.4,3.3-3.3,3.2-5.1L200.8,268.7z"/>
							</g>
						</g>
					</g>
				</g>
			</g>
			<g id="_Group_17" class="st5">
				<path class="st2" d="M199.1,262.8l-1.4-5l-16.4,5l-1.3,4.6l0,0l-0.4,1.4l-0.5,2l0,0l-1,3.8C187.5,272.3,195,268,199.1,262.8z"/>
			</g>
		</g>
		<g id="_Group_18">
			<g id="_Group_19">
				<g id="_Group_20">
					<g id="_Group_21">
						<path class="st2" d="M141.8,278.9h-7.9L126,279c-2.2,11.6,5.1,20.5,8,20.5S144.2,290.5,141.8,278.9z"/>
					</g>
					<g id="_Group_22" class="st3">
						<path class="st2" d="M141.8,278.9h-7.9L126,279c-2.2,11.6,5.1,20.5,8,20.5S144.2,290.5,141.8,278.9z"/>
					</g>
					<g id="_Group_23">
						<path class="st2" d="M133.9,278.9h2.7c1.2,1.8,1.8,4,1.5,6.2c-0.3,3.1-2.5,7.2-4.1,7.2s-3.9-4-4.2-7.2
							c-0.3-2.2,0.2-4.4,1.4-6.2L133.9,278.9"/>
					</g>
				</g>
				<g id="_Group_24">
					<g id="_Group_25">
						<g id="_Group_26">
							<g id="_Group_27">
								<path class="st2" d="M141.7,258l-15,0l-2.7,9.6c-0.2,1.8,0.8,3.6,3,4.9c0.8,0.5,1.6,0.9,2.5,1.1c3.1,1,6.4,1,9.5,0
									c0.9-0.3,1.7-0.7,2.4-1.1c2.1-1.4,3.1-3.2,2.9-4.9L141.7,258z"/>
							</g>
							<g id="_Group_28" class="st4">
								<path class="st2" d="M141.7,258l-15,0l-2.7,9.6c-0.2,1.8,0.8,3.6,3,4.9c0.8,0.5,1.6,0.9,2.5,1.1c3.1,1,6.4,1,9.5,0
									c0.9-0.3,1.7-0.7,2.4-1.1c2.1-1.4,3.1-3.2,2.9-4.9L141.7,258z"/>
							</g>
							<g id="_Group_29">
								<path class="st2" d="M144.6,268.5l0.1,0.5l0.6,2c0.1,1.8-1,3.7-3.2,5.1c-0.8,0.5-1.7,0.9-2.7,1.3c-3.3,1.1-6.9,1.1-10.3,0.1
									c-1-0.3-1.9-0.7-2.7-1.3c-2.3-1.4-3.3-3.3-3.3-5.1l-1.5,5.4l0,0c0,1.8,1.3,3.6,3.7,5c1,0.6,2.1,1,3.2,1.3
									c3.7,1,7.7,1,11.4-0.1c1.1-0.3,2.1-0.8,3.1-1.3c2.4-1.4,3.7-3.2,3.6-5.1L144.6,268.5z"/>
							</g>
							<g id="_Group_30" class="st4">
								<path class="st2" d="M144.6,268.5l0.1,0.5l0.6,2c0.1,1.8-1,3.7-3.2,5.1c-0.8,0.5-1.7,0.9-2.7,1.3c-3.3,1.1-6.9,1.1-10.3,0.1
									c-1-0.3-1.9-0.7-2.7-1.3c-2.3-1.4-3.3-3.3-3.3-5.1l-1.5,5.4l0,0c0,1.8,1.3,3.6,3.7,5c1,0.6,2.1,1,3.2,1.3
									c3.7,1,7.7,1,11.4-0.1c1.1-0.3,2.1-0.8,3.1-1.3c2.4-1.4,3.7-3.2,3.6-5.1L144.6,268.5z"/>
							</g>
							<g id="_Group_31">
								<path class="st2" d="M144.8,268.9l-0.1-0.5l-0.3-0.9c0.2,1.8-0.8,3.6-2.9,4.9c-0.8,0.5-1.6,0.9-2.4,1.1c-3.1,1-6.4,1-9.5,0
									c-0.9-0.3-1.7-0.7-2.5-1.1c-2.2-1.3-3.1-3.1-3-4.9l-0.9,3.3c-0.1,1.9,1,3.7,3.3,5.1c0.9,0.5,1.8,0.9,2.7,1.3
									c3.3,1,6.9,1,10.3-0.1c0.9-0.3,1.8-0.7,2.7-1.3c2.2-1.4,3.3-3.3,3.2-5.1L144.8,268.9z"/>
							</g>
						</g>
					</g>
				</g>
			</g>
			<g id="_Group_32" class="st5">
				<path class="st2" d="M126.7,258.1l-1.4,4.9c4.2,5.2,11.7,9.4,21,11.6l-1.7-6.2l-0.3-0.9l0,0l-2.6-9.5L126.7,258.1z"/>
			</g>
		</g>
		<g id="_Group_33">
			<g id="_Group_34">
				<g id="_Group_35">
					<path class="st2" d="M177.8,287.2l-15.4-3.3l-15.4,3.5c0,0-1.8,7,0.3,18s11.1,21.9,15.4,21.9s13.2-11,15.1-22
						S177.8,287.2,177.8,287.2z"/>
				</g>
				<g id="_Group_36" class="st6">
					<path class="st2" d="M177.8,287.2l-15.4-3.3l-15.4,3.5c0,0-1.8,7,0.3,18s11.1,21.9,15.4,21.9s13.2-11,15.1-22
						S177.8,287.2,177.8,287.2z"/>
				</g>
				<g id="_Group_37">
					<path class="st2" d="M172.4,288.8h-10.6h-10.6c-2.9,15.5,6.8,27.3,10.7,27.3S175.5,304.3,172.4,288.8z"/>
				</g>
				<g id="_Group_38">
					<path class="st2" d="M161.9,288.9h3.6c1.7,2.4,2.4,5.4,2,8.3c-0.4,4.2-3.4,9.6-5.5,9.6s-5.2-5.4-5.6-9.6
						c-0.4-2.9,0.3-5.8,1.9-8.3L161.9,288.9"/>
				</g>
			</g>
			<g id="_Group_39">
				<g id="_Group_40">
					<g id="_Group_41">
						<g id="_Group_42">
							<path class="st2" d="M175.8,272.6l-1.7-6.2h-7h-9.5h-7.1l-1.7,6.2c-0.2,2.4,1.1,4.8,4,6.5c1,0.6,2.2,1.1,3.3,1.5
								c4.1,1.3,8.5,1.3,12.6-0.1c1.1-0.4,2.2-0.9,3.2-1.5C174.7,277.4,176,275,175.8,272.6z"/>
						</g>
						<g id="_Group_43" class="st1">
							<path class="st2" d="M175.8,272.6l-1.7-6.2h-7h-9.5h-7.1l-1.7,6.2c-0.2,2.4,1.1,4.8,4,6.5c1,0.6,2.2,1.1,3.3,1.5
								c4.1,1.3,8.5,1.3,12.6-0.1c1.1-0.4,2.2-0.9,3.2-1.5C174.7,277.4,176,275,175.8,272.6z"/>
						</g>
						<g id="_Group_44">
							<path class="st2" d="M176.1,273.8l0.2,0.6l0.7,2.6c0.1,2.5-1.3,5-4.3,6.8c-1.1,0.7-2.3,1.3-3.6,1.7
								c-4.4,1.4-9.2,1.5-13.7,0.1c-1.3-0.4-2.5-1-3.6-1.7c-3-1.9-4.5-4.4-4.4-6.8l-2,7.2l0,0c0,2.4,1.7,4.9,4.9,6.7
								c1.4,0.8,2.8,1.3,4.3,1.7c5,1.4,10.3,1.3,15.2-0.1c1.5-0.4,2.9-1,4.2-1.8c3.3-1.9,4.9-4.3,4.9-6.8L176.1,273.8z"/>
						</g>
						<g id="_Group_45" class="st1">
							<path class="st2" d="M176.1,273.8l0.2,0.6l0.7,2.6c0.1,2.5-1.3,5-4.3,6.8c-1.1,0.7-2.3,1.3-3.6,1.7
								c-4.4,1.4-9.2,1.5-13.7,0.1c-1.3-0.4-2.5-1-3.6-1.7c-3-1.9-4.5-4.4-4.4-6.8l-2,7.2l0,0c0,2.4,1.7,4.9,4.9,6.7
								c1.4,0.8,2.8,1.3,4.3,1.7c5,1.4,10.3,1.3,15.2-0.1c1.5-0.4,2.9-1,4.2-1.8c3.3-1.9,4.9-4.3,4.9-6.8L176.1,273.8z"/>
						</g>
						<g id="_Group_46">
							<path class="st2" d="M176.3,274.4l-0.2-0.6l-0.3-1.2c0.2,2.4-1.1,4.8-3.9,6.6c-1,0.6-2.1,1.1-3.2,1.5
								c-4.1,1.3-8.5,1.4-12.6,0.1c-1.2-0.4-2.3-0.9-3.3-1.5c-2.9-1.8-4.2-4.2-4-6.5l-1.2,4.5c-0.1,2.5,1.4,5,4.4,6.8
								c1.1,0.7,2.4,1.3,3.6,1.7c4.5,1.4,9.2,1.4,13.7-0.1c1.3-0.4,2.4-1,3.6-1.7c3-1.9,4.4-4.4,4.3-6.8L176.3,274.4z"/>
						</g>
					</g>
				</g>
				<g id="_Group_47" class="st5">
					<path class="st2" d="M162.2,276.4c4.8,0,9.5-0.5,14.2-1.4l-0.1-0.5l-0.2-0.6l-0.3-1.2l-1.7-6.2h-7h-9.5h-7.1l-1.7,6.2l-0.6,2.4
						C152.7,276,157.5,276.4,162.2,276.4z"/>
				</g>
			</g>
		</g>
	</g>
	<g id="_Group_48">
		<path id="_Path_" class="st7" d="M147.4,217.1l-46.1-14.2c-0.1-1.7,0-3.3,0.2-5c0-0.5,0.1-1,0.2-1.5s0.2-1,0.3-1.4
			s0.3-0.9,0.4-1.4c0.1-0.2,0.2-0.4,0.2-0.7s0.1-0.3,0.2-0.5l0,0c1.1-2.8,3.3-5.1,6-6.4l5.9-2.9l0.6-0.3c1.9-0.9,3.9-1.4,6-1.6
			c4.5-0.4,8.9-1.4,13.1-2.7c1.3-0.9,2.4-2,3.3-3.2c4.5-5.8,5.5-18.3,5.2-24.5l6.5-3.2l4.4,66.3l-6.8-2.1v0.2L147.4,217.1z"/>
		<g id="_Group_49">
			<path class="st7" d="M101.3,202.9l46.1,14.2l-0.4-5.2v-0.2l-2.6-39.8l-1.4-21.2c0.3,6.2-0.7,18.7-5.2,24.5
				c-0.9,1.2-2.1,2.3-3.3,3.2c-4.5,3.2-11.3,4.9-19.6,5.9c-0.8,0.1-1.7,0.2-2.5,0.4c-1.2,0.3-2.4,0.7-3.5,1.2
				c-2.7,1.3-4.9,3.6-6,6.4l0,0c-0.1,0.2-0.1,0.3-0.2,0.5s-0.2,0.4-0.2,0.7c-0.2,0.4-0.3,0.9-0.4,1.4s-0.2,0.9-0.3,1.4
				s-0.2,1-0.2,1.5C101.3,199.6,101.2,201.2,101.3,202.9z"/>
		</g>
		<path id="_Path_2" class="st7" d="M146.6,206l-43.9-13.5c-0.7,1.7-1.1,3.6-1.3,5.5l45.6,14L146.6,206z"/>
		<g id="_Group_50" class="st8">
			<path class="st7" d="M146.6,206l-43.9-13.5c-0.7,1.7-1.1,3.6-1.3,5.5l45.6,14L146.6,206z"/>
		</g>
	</g>
	<g id="_Group_51" class="st1">
		<g id="_Group_52">
			<path id="_Path_3" class="st2" d="M183.1,204.2c5.9,15.8,11.8,31.6,18.1,47.3c1.1,2.7-0.3,6.3-3.4,8.6
				c-9.8,7.2-22.7,11-35.7,10.9s-25.9-3.9-35.8-11c-3.1-2.3-4.5-5.7-3.4-8.4c6.3-15.5,12.1-31.1,17.7-46.8L183.1,204.2z"/>
			<path id="_Path_4" class="st2" d="M162.2,258.5c13,0.3,27.6-3.9,37.3-11.4c0.7,1.8,1,2.6,1.8,4.4c1.1,2.7-0.3,6.3-3.4,8.6
				c-9.8,7.2-22.7,10.9-35.7,10.9s-25.9-3.9-35.8-11c-3.1-2.3-4.5-5.7-3.4-8.4l1.7-4.3C135,254.9,148.7,258.2,162.2,258.5z"/>
			<path id="_Path_5" class="st2" d="M162,222.1c-8.9,0.2-17.8-1-26.3-3.6c2-5.4,3-8.2,5-13.8l19.1-0.2h2.1c0.7,0,1.4,0,2.1-0.1
				l19.1-0.2c2.1,5.6,3.1,8.4,5.1,13.9C179.8,220.8,170.9,222.2,162,222.1z"/>
			<g id="_Group_53" class="st1">
				<path id="_Path_6" class="st2" d="M175.4,204.3c0.7,4.5,1.6,10.3,2.5,16.4c2.6-0.5,5-1,7.1-1.6c-1.3-5.9-1.9-8.9-3.2-14.9
					L175.4,204.3z"/>
			</g>
			<g id="_Group_54" class="st1">
				<path id="_Path_7" class="st2" d="M126.5,259.9c9.9,7.2,22.8,11,35.8,11c0.9,0,1.8,0,2.6,0s1.7-0.1,2.5-0.1l1.3-0.1l1.9-0.2
					c0.4,0,0.8-0.1,1.2-0.2s0.8-0.1,1.2-0.2c0.7-0.1,1.4-0.2,2-0.3l0.4-0.1c0.8-0.1,1.5-0.3,2.3-0.5c0.9-0.2,1.8-0.5,2.7-0.7
					l1.6-0.5c0.7-0.2,1.3-0.4,1.9-0.6c1.2-0.4,2.4-0.9,3.5-1.4l0.8-0.4l1-0.4l1.3-0.7c0.5-0.2,0.9-0.5,1.4-0.7l1.3-0.7
					c0.4-0.2,0.8-0.5,1.2-0.7c-0.9-4.2-1.4-6.3-2.4-10.6c-2.8,1.4-5.7,2.6-8.7,3.6c0.3,1.3,0.5,2.7,0.7,4
					C180.7,270.1,150.7,272.1,126.5,259.9z"/>
			</g>
			<path id="_Path_8" class="st9" d="M177.9,220.7c1.8,11.6,3.6,23.1,5.5,34.7c3-1,5.9-2.2,8.7-3.6c-2.4-10.9-4.8-21.8-7.1-32.7
				C182.9,219.6,180.5,220.2,177.9,220.7z"/>
		</g>
	</g>
	<g id="_Group_55">
		<path id="_Path_9" class="st7" d="M175,217l46-14.5c0.1-1.7,0-3.3-0.2-5c-0.1-0.5-0.1-1-0.2-1.5s-0.2-0.9-0.3-1.4
			s-0.3-0.9-0.4-1.4c-0.1-0.2-0.2-0.4-0.3-0.7s-0.1-0.3-0.2-0.5l0,0c-1.1-2.8-3.3-5.1-6.1-6.4l-5.9-2.9l-0.6-0.3
			c-1.9-0.9-3.9-1.4-6-1.6c-4.5-0.4-8.9-1.3-13.2-2.6c-1.3-0.9-2.4-1.9-3.3-3.1c-4.5-5.8-5.7-18.3-5.4-24.5l-6.6-3.2l-3.7,66.4
			l6.9-2.2v0.2L175,217z"/>
		<g id="_Group_56">
			<path class="st7" d="M221,202.5L175,217l0.3-5.2v-0.2l2.2-39.9l1.2-21.2c-0.3,6.2,0.9,18.7,5.4,24.5c0.9,1.2,2.1,2.3,3.3,3.1
				c4.6,3.2,11.3,4.9,19.7,5.8c0.8,0.1,1.7,0.2,2.5,0.4c1.2,0.3,2.4,0.7,3.5,1.2c2.8,1.3,4.9,3.6,6.1,6.4l0,0
				c0.1,0.2,0.1,0.3,0.2,0.5s0.2,0.4,0.3,0.7c0.1,0.4,0.3,0.9,0.4,1.4s0.2,0.9,0.3,1.4s0.2,1,0.2,1.5
				C220.9,199.1,221,200.8,221,202.5z"/>
		</g>
		<path id="_Path_10" class="st7" d="M175.7,205.9l43.7-13.9c0.7,1.7,1.2,3.6,1.4,5.4l-45.4,14.4L175.7,205.9z"/>
		<g id="_Group_57" class="st8">
			<path class="st7" d="M175.7,205.9l43.7-13.9c0.7,1.7,1.2,3.6,1.4,5.4l-45.4,14.4L175.7,205.9z"/>
		</g>
	</g>
	<g id="_Group_58">
		<path id="_Path_11" class="st2" d="M207,84.2c0.1-2.8-0.2-5.7-0.9-8.5c-6.4-24.9-24.1-45.3-34.3-58.5c-1.9-2.4-5.9-7.9-7.5-8.9
			c-1-0.6-2.2-0.9-3.4-0.9c-1.2,0-2.4,0.3-3.4,0.9c-1.6,1-5.6,6.5-7.4,8.9C140.8,29,122.5,51.1,116.4,76c-0.7,2.8-0.9,5.6-0.8,8.5
			L122,224l0,0c0,6.9,7.6,13.9,22.6,17.6c11.5,2.8,23.5,2.8,35-0.1c15-3.8,22.4-10.8,22.4-17.7l0,0L207,84.2z"/>
		<path id="_Path_12" class="st10" d="M207,84.2c0.1-2.8-0.2-5.7-0.9-8.5c-6.4-24.9-24.1-45.3-34.3-58.5c-1.9-2.4-5.9-7.9-7.5-8.9
			c-1-0.6-2.2-0.9-3.4-0.9c-1.2,0-2.4,0.3-3.4,0.9c-1.6,1-5.6,6.5-7.4,8.9C140.8,29,122.5,51.1,116.4,76c-0.7,2.8-0.9,5.6-0.8,8.5
			L122,224l0,0c0,6.9,7.6,13.9,22.6,17.6c11.5,2.8,23.5,2.8,35-0.1c15-3.8,22.4-10.8,22.4-17.7l0,0L207,84.2z"/>
		<path class="st11" d="M206.1,75.7c-6.4-24.9-24.1-45.3-34.3-58.5l-1.5-2l0,0c8.4,17.9,21.7,46.6,22.8,86.8
			c0.6,23.7-1.1,87.4-2.5,135.6l0,0c1.8-0.9,3.4-1.9,5-3.1l0.1-0.1c0.9-0.7,1.8-1.5,2.6-2.3l0.3-0.3c0.2-0.2,0.4-0.4,0.6-0.7
			s0.2-0.3,0.3-0.4c0.3-0.3,0.5-0.6,0.7-1s0.3-0.4,0.4-0.6l0.3-0.5c0.1-0.2,0.2-0.5,0.3-0.7s0.1-0.3,0.2-0.4
			c0.1-0.4,0.3-0.7,0.4-1.1c0-0.1,0-0.2,0.1-0.3c0.1-0.3,0.1-0.6,0.2-0.9c0-0.1,0-0.2,0-0.3c0-0.4,0.1-0.8,0.1-1.2l0,0l5-139.5
			C207.1,81.3,206.8,78.5,206.1,75.7z"/>
		<path id="_Path_13" class="st2" d="M126.1,90.2c19.3,9.4,50.6,9.2,69.8-0.3c4.3-1.9,8.1-4.8,11.1-8.4c-0.1-2.1-0.4-4.2-0.9-6.2
			c-0.3-1.1-0.6-2.2-0.9-3.2c-2.8,2.6-5.9,4.8-9.4,6.5c-19.2,9.5-50.5,9.6-69.8,0.3c-3.3-1.5-6.3-3.5-9-5.9
			c-0.3,0.9-0.5,1.8-0.7,2.8c-0.5,2.3-0.8,4.6-0.8,7C118.5,85.8,122.1,88.4,126.1,90.2z"/>
		<path class="st9" d="M207,81.6c-0.1-2-0.4-3.9-0.8-5.9c-0.3-1.2-0.7-2.4-1-3.5c-2.7,2.6-5.8,4.7-9.3,6.3c-1.5,0.7-3,1.4-4.6,2
			c0.5,3.5,0.9,7.2,1.2,11c1.2-0.5,2.3-1,3.4-1.5C200.2,88,204,85.2,207,81.6z"/>
		<path id="_Path_14" class="st12" d="M163.8,8.1c-0.9-0.4-1.9-0.6-2.9-0.6c-1.2,0-2.4,0.3-3.4,0.9c-1.6,1-5.6,6.5-7.4,8.9
			C140.8,29,122.5,51.1,116.4,76c-0.7,2.8-0.9,5.6-0.8,8.5L122,224c0,6.9,7.6,13.9,22.6,17.6l0.6,0.1
			c-3.3-58.1-17.1-152.4-3.7-190.1C148.8,31.1,158.9,6.7,163.8,8.1z"/>
		<path id="_Path_15" class="st9" d="M170.3,15.2c2.8,6,6.2,13.2,9.4,21.6c1.9-0.9,3.5-1.9,5-2.8c-3.6-5-7.2-9.5-10.4-13.5
			c-0.9-1.1-1.8-2.3-2.6-3.3c-0.3-0.4-0.7-0.9-1-1.4C170.6,15.6,170.5,15.4,170.3,15.2z"/>
	</g>
	<g id="_Group_59" class="st13">
		<path id="_Path_16" class="st7" d="M142.4,233l-45.9,30.8l-6.5-3.2c-0.4-11.3,3.9-21.3,13.4-31.8c4.1-4.5,7.8-8.7,11.2-12.7
			c4.9-5.6,9.3-11.5,13.3-17.8c5.5-9.3,6.8-15.1,6.7-21.5c0-0.2,0-0.4,0-0.6c0-0.2,0-0.4,0-0.6l3.5,1.4L142.4,233z"/>
		<g id="_Group_60">
			<path class="st7" d="M91.5,248.7c-0.6,2.2-1.1,4.5-1.3,6.8l6.5,3.2v-0.2c0.2-2.2,0.7-4.4,1.3-6.5l0,0L91.5,248.7z"/>
		</g>
		<g id="_Group_61" class="st14">
			<path class="st7" d="M91.5,248.7c-0.6,2.2-1.1,4.5-1.3,6.8l6.5,3.2v-0.2c0.2-2.2,0.7-4.4,1.3-6.5l0,0L91.5,248.7z"/>
		</g>
		<g id="_Group_62">
			<path class="st7" d="M138.1,177c0.3,5.9-0.8,13.1-5.2,23.3c-4.1,9.4-12.1,19.8-22.8,31.6c-9.6,10.6-13.9,20.6-13.4,31.8
				l45.8-30.8L138.1,177z"/>
		</g>
		<path id="_Path_17" class="st7" d="M141.7,222.5L98,251.9c-0.6,2.2-1.1,4.5-1.3,6.8l45.4-30.5L141.7,222.5z"/>
	</g>
	<g id="_Group_63" class="st13">
		<path id="_Path_18" class="st7" d="M180.1,232.8l46.2,30.5l6.5-3.2c0.3-11.3-4.1-21.3-13.8-31.8c-4.1-4.5-7.9-8.6-11.3-12.6
			c-5-5.5-9.4-11.5-13.4-17.7c-5.6-9.3-7-15-6.9-21.4c0-0.2,0-0.4,0-0.6c0-0.2,0-0.4,0-0.6l-3.4,1.4L180.1,232.8z"/>
		<g id="_Group_64">
			<path class="st7" d="M231.2,248.2c0.7,2.2,1.1,4.5,1.4,6.7l-6.5,3.2V258c-0.2-2.2-0.7-4.4-1.3-6.5l0,0L231.2,248.2z"/>
		</g>
		<g id="_Group_65" class="st14">
			<path class="st7" d="M231.2,248.2c0.7,2.2,1.1,4.5,1.4,6.7l-6.5,3.2V258c-0.2-2.2-0.7-4.4-1.3-6.5l0,0L231.2,248.2z"/>
		</g>
		<g id="_Group_66">
			<path class="st7" d="M183.9,176.9c-0.3,5.9,0.9,13.1,5.5,23.3c4.2,9.4,12.3,19.7,23.2,31.4c9.7,10.5,14.1,20.5,13.8,31.8
				l-46.2-30.5L183.9,176.9z"/>
		</g>
		<path id="_Path_19" class="st7" d="M180.8,222.4l44,29c0.7,2.2,1.1,4.5,1.4,6.8L180.4,228L180.8,222.4z"/>
	</g>
	<g id="_Group_67" class="st1">
		<path id="_Path_20" class="st2" d="M122.9,151.1c1.4,0.7,2.4,2.1,2.5,3.7c0,1.4-1.1,1.9-2.5,1.2c-1.4-0.7-2.4-2.1-2.5-3.7
			C120.4,150.9,121.5,150.4,122.9,151.1z"/>
		<path id="_Path_21" class="st2" d="M122.8,159.7c1.3,0.7,2.2,2,2.4,3.5c0,1.3-1,1.8-2.4,1.2c-1.3-0.7-2.2-2-2.4-3.5
			C120.5,159.6,121.5,159.1,122.8,159.7z"/>
		<path id="_Path_22" class="st2" d="M123,168.4c1.3,0.6,2.1,1.9,2.3,3.3c0,1.2-1,1.7-2.2,1.1c-1.3-0.6-2.1-1.9-2.3-3.3
			C120.8,168.3,121.8,167.8,123,168.4z"/>
		<path id="_Path_23" class="st2" d="M123.3,177.1c1.2,0.6,2,1.8,2.1,3.1c0,1.1-0.9,1.6-2.1,1c-1.2-0.6-2-1.8-2.1-3.1
			C121.2,177,122.2,176.5,123.3,177.1z"/>
		<path id="_Path_24" class="st2" d="M123.8,185.8c1.1,0.6,1.9,1.7,2,2.9c0,1.1-0.9,1.5-2,1c-1.1-0.6-1.9-1.7-2-2.9
			C121.8,185.7,122.7,185.2,123.8,185.8z"/>
		<path id="_Path_25" class="st2" d="M124.3,194.4c1,0.5,1.7,1.5,1.9,2.7c0,1-0.8,1.4-1.8,0.9c-1-0.5-1.7-1.5-1.9-2.7
			C122.4,194.4,123.2,194,124.3,194.4z"/>
		<path id="_Path_26" class="st2" d="M124.7,203.1c1,0.5,1.6,1.4,1.7,2.5c0,0.9-0.8,1.3-1.7,0.9c-1-0.5-1.6-1.4-1.7-2.5
			C123,203.1,123.8,202.7,124.7,203.1z"/>
	</g>
	<g id="_Group_68" class="st1">
		<path id="_Path_27" class="st2" d="M197.1,150.8c-1.4,0.7-2.3,2.1-2.5,3.7c0,1.4,1.1,1.9,2.5,1.2c1.4-0.7,2.3-2.1,2.5-3.7
			C199.6,150.6,198.5,150.1,197.1,150.8z"/>
		<path id="_Path_28" class="st2" d="M197.2,159.5c-1.3,0.7-2.2,2-2.4,3.5c0,1.3,1.1,1.8,2.4,1.1c1.3-0.7,2.2-2,2.4-3.5
			C199.6,159.3,198.5,158.8,197.2,159.5z"/>
		<path id="_Path_29" class="st2" d="M197.2,168.1c-1.3,0.6-2.1,1.9-2.2,3.3c0,1.2,1,1.7,2.2,1.1c1.3-0.6,2.1-1.9,2.2-3.3
			C199.4,168,198.4,167.5,197.2,168.1z"/>
		<path id="_Path_30" class="st2" d="M196.9,176.8c-1.2,0.6-2,1.8-2.1,3.1c0,1.1,0.9,1.6,2.1,1c1.2-0.6,2-1.8,2.1-3.1
			C199,176.7,198.1,176.3,196.9,176.8z"/>
		<path id="_Path_31" class="st2" d="M196.6,185.5c-1.1,0.6-1.9,1.7-2,2.9c0,1.1,0.9,1.5,2,1c1.1-0.6,1.9-1.7,2-2.9
			C198.6,185.4,197.7,185,196.6,185.5z"/>
		<path id="_Path_32" class="st2" d="M196.2,194.2c-1,0.5-1.7,1.6-1.8,2.7c0,1,0.8,1.4,1.9,0.9c1-0.5,1.7-1.6,1.8-2.7
			C198,194.1,197.2,193.7,196.2,194.2z"/>
		<path id="_Path_33" class="st2" d="M195.8,202.9c-1,0.5-1.6,1.5-1.7,2.5c0,0.9,0.8,1.3,1.7,0.8c1-0.5,1.6-1.5,1.7-2.5
			C197.5,202.8,196.8,202.4,195.8,202.9z"/>
	</g>
	<ellipse class="st10" cx="160.2" cy="189.8" rx="18.4" ry="15.6"/>
	<ellipse class="st2" cx="160.2" cy="189.8" rx="13.4" ry="11.4"/>
	<g class="st15">
		<path class="st7" d="M189.7,103.4c-1.3,0.1-2.5-0.6-3.3-1.6c-5.9-8.5-15.7-13.3-26-12.9c-9.2,0.2-17.8,4.5-23.5,11.8
			c-1.3,1.6-3.6,1.9-5.3,0.8c-1.6-1-2.1-3.1-1-4.7c0.1-0.1,0.1-0.2,0.2-0.3c7.1-9.1,17.9-14.5,29.4-14.8
			c12.9-0.5,25.2,5.6,32.6,16.2c1.1,1.6,0.7,3.7-0.9,4.8c-0.1,0-0.1,0.1-0.2,0.1C191.1,103.2,190.4,103.4,189.7,103.4z"/>
	</g>
	<g class="st15">
		<path class="st7" d="M199,95.5c-1.3,0.1-2.5-0.6-3.3-1.6c-7.9-11.5-21.4-18.2-36-17.8c-12.7,0.2-24.7,6.2-32.5,16.2
			c-1.3,1.6-3.6,1.9-5.3,0.8c-1.6-1-2-3.2-1-4.7c0.1-0.1,0.1-0.2,0.2-0.3c9.3-11.8,23.4-18.8,38.4-19.1c17.3-0.5,33.2,7.3,42.6,21
			c1.1,1.6,0.7,3.7-0.8,4.8c-0.1,0.1-0.2,0.1-0.3,0.2C200.4,95.3,199.7,95.5,199,95.5z"/>
	</g>
	<path class="st7" d="M161.5,94.7c-13,0-23.6,10.5-23.6,23.6s10.5,23.6,23.6,23.6s23.6-10.5,23.6-23.6S174.5,94.7,161.5,94.7z
		 M161.5,134.2c-9,0-16.4-7.3-16.4-16.4s7.3-16.4,16.4-16.4c9,0,16.4,7.3,16.4,16.4S170.5,134.2,161.5,134.2z"/>
</g>
</svg>
